<svg width="138" height="211" viewBox="0 0 138 211" xmlns="http://www.w3.org/2000/svg" xmlns:xlink="http://www.w3.org/1999/xlink">
    <filter id="filter1" x="0" y="0" width="138" height="211" filterUnits="userSpaceOnUse" primitiveUnits="userSpaceOnUse" color-interpolation-filters="sRGB">
        <feGaussianBlur stdDeviation="6"/>
        <feOffset dx="-0" dy="6" result="offsetblur"/>
        <feFlood flood-color="#000000" flood-opacity="0.5"/>
        <feComposite in2="offsetblur" operator="in"/>
        <feMerge>
            <feMergeNode/>
            <feMergeNode in="SourceGraphic"/>
        </feMerge>
    </filter>
    <path id="Shape" fill="#3f50f6" fill-opacity="0.399019" fill-rule="evenodd" stroke="none" filter="url(#filter1)" d="M 120.919113 188.46051 C 113.606834 193.245132 100.229004 199.989075 83.296486 200.166275 C 51.011532 200.504074 27.55847 183.815277 27.519114 152.082031 L 27.398523 54.852905 L 60.054237 54.812378 L 60.064762 63.299225 L 60.618259 63.298538 C 68.358154 56.093536 78.500343 52.022064 91.046074 52.006516 C 118.720375 51.972198 138.120346 74.45665 138.154663 102.13092 C 138.188995 129.805298 118.844612 152.153259 91.170319 152.187592 C 78.255608 152.203613 67.183609 150.372375 60.163155 142.632278 L 60.171844 149.643143 C 60.192669 166.432159 74.221458 171.659485 83.261246 171.753967 C 93.502266 171.860977 96.96579 171.537216 106.798691 166.697235 Z M 103.469475 102.17395 C 103.453232 89.074799 93.663551 79.862137 81.302338 79.877457 C 69.125641 79.892593 59.358829 89.129471 59.375076 102.228653 C 59.39109 115.143349 68.627289 124.356636 81.357483 124.340874 C 94.641167 124.324394 103.485497 115.088646 103.469475 102.17395 Z"/>
    <path id="jago" fill="#3f50f6" fill-rule="evenodd" stroke="none" d="M 44.673382 0.215637 C 44.673382 0.215637 57.439243 0.294861 60.048008 0.196533 C 60.59631 0.175858 60.718582 30.875122 60.08614 30.945816 C 59.326393 31.030701 60.446224 30.937042 60.08614 30.945816 C 52.879055 31.120621 60.966999 31.100922 44.711517 30.964859 C 40.566174 30.930161 33.518604 30.907486 28.055674 30.985535 C 27.381311 30.995148 27.349428 0.24028 28.017538 0.236237 C 30.64917 0.220398 44.673382 0.215637 44.673382 0.215637 Z M 27.66503 54.85257 L 60.320744 54.812073 L 60.456203 164.033417 C 60.477028 180.82254 52.383251 200.204575 26.369385 200.236877 C 10.871751 200.256104 4.963097 196.388977 0.348194 194.365311 L 10.462725 167.969818 C 10.462725 167.969818 14.709547 170.731995 18.768448 170.726959 C 24.303322 170.720108 27.803694 166.65683 27.792709 157.801086 Z"/>
</svg>
