<svg width="512" height="215" viewBox="0 0 512 215" xmlns="http://www.w3.org/2000/svg" xmlns:xlink="http://www.w3.org/1999/xlink">
    <filter id="filter1" x="0" y="0" width="512" height="215" filterUnits="userSpaceOnUse" primitiveUnits="userSpaceOnUse" color-interpolation-filters="sRGB">
        <feGaussianBlur stdDeviation="6"/>
        <feOffset dx="-0" dy="6" result="offsetblur"/>
        <feFlood flood-color="#000000" flood-opacity="0.5"/>
        <feComposite in2="offsetblur" operator="in"/>
        <feMerge>
            <feMergeNode/>
            <feMergeNode in="SourceGraphic"/>
        </feMerge>
    </filter>
    <path id="Shape" fill="#3f50f6" fill-opacity="0.453543" fill-rule="evenodd" stroke="none" filter="url(#filter1)" d="M 120.877968 188.484589 C 113.563454 193.265808 100.18248 200.00351 83.249886 200.172821 C 50.964775 200.495575 27.519497 183.795837 27.494934 152.062592 L 27.41967 54.833405 L 60.075397 54.808105 L 60.081966 63.294952 L 60.635464 63.294525 C 68.378716 56.09314 78.522804 52.026398 91.068542 52.016693 C 118.742851 51.99527 138.132339 74.48877 138.153763 102.163055 C 138.175186 129.837433 118.820389 152.176392 91.14608 152.197815 C 78.231369 152.207825 67.160225 150.371429 60.143375 142.628052 L 60.1488 149.638916 C 60.161797 166.427948 74.188148 171.661804 83.22789 171.760498 C 93.468857 171.872284 96.932533 171.55014 106.767693 166.714752 Z M 103.468552 102.189911 C 103.45842 89.090759 93.673035 79.873535 81.311813 79.883087 C 69.135109 79.892548 59.363995 89.124878 59.374134 102.22406 C 59.384129 115.138763 68.616028 124.356354 81.34623 124.346527 C 94.629921 124.336243 103.478554 115.104614 103.468552 102.189911 Z"/>
    <path id="jago" fill="#3f50f6" fill-rule="evenodd" stroke="none" d="M 398.540527 104.523956 C 398.56308 133.674286 421.456635 154.504578 455.588348 154.47818 C 488.244049 154.452881 512.027832 133.586426 512.00531 104.436157 C 511.982452 74.91687 486.875031 54.272736 455.510834 54.297028 C 423.593048 54.321747 398.51767 75.004669 398.540527 104.523956 Z M 433.225677 104.497101 C 433.215546 91.397919 442.986664 82.165588 455.347839 82.156006 C 467.524567 82.146637 477.309998 91.3638 477.320129 104.462982 C 477.330139 117.377716 468.112488 126.609619 455.382263 126.619446 C 442.098572 126.62973 433.235657 117.411835 433.225677 104.497101 Z M 290.861877 190.915436 C 298.183777 195.685333 311.575165 202.402313 328.508026 202.54541 C 360.79361 202.818207 384.212982 186.082153 384.188416 154.348907 L 384.11319 57.119751 L 351.457458 57.14505 L 351.463989 65.631836 L 350.910492 65.632263 C 343.156128 58.442932 333.005768 54.391876 320.459991 54.401581 C 292.785675 54.423004 273.431061 76.946472 273.452454 104.620789 C 273.473877 132.295166 292.863251 154.604126 320.537537 154.582703 C 333.452271 154.572723 344.520569 152.719177 351.525391 144.964935 L 351.530853 151.9758 C 351.543823 168.764862 337.525604 174.020416 328.486053 174.133118 C 318.245239 174.260742 314.781067 173.943939 304.938416 169.12381 Z M 308.137665 104.593964 C 308.127533 91.494751 317.898621 82.262421 330.259888 82.252869 C 342.436554 82.243439 352.221985 91.460602 352.232086 104.559784 C 352.242096 117.474518 343.024475 126.706421 330.294281 126.716278 C 317.01059 126.726563 308.147675 117.508667 308.137665 104.593964 Z M 147.442001 104.718323 C 147.463425 132.39267 166.852722 154.701691 194.527084 154.680237 C 207.441757 154.670227 218.507065 148.942322 225.511902 141.18808 L 225.88089 141.187775 L 225.889175 151.888519 L 258.175903 151.863525 L 258.102631 57.217285 L 225.44693 57.242554 L 225.453934 66.282837 C 217.699265 58.724548 207.179733 54.489258 194.449524 54.499115 C 166.775177 54.520508 147.420578 77.044037 147.442001 104.718323 Z M 182.127182 104.691467 C 182.117035 91.592316 191.888138 82.359985 204.249359 82.350403 C 216.426071 82.340973 226.211472 91.558167 226.221619 104.657349 C 226.231613 117.572083 217.013962 126.803955 204.283783 126.813812 C 191.000076 126.824127 182.137177 117.606171 182.127182 104.691467 Z M 44.719997 0.204193 C 44.719997 0.204193 57.485821 0.289368 60.094631 0.192261 C 60.642941 0.171844 60.750904 30.871155 60.118427 30.941559 C 59.358643 31.026093 60.478516 30.932953 60.118427 30.941559 C 52.911263 31.113007 60.999214 31.097076 44.743797 30.95343 C 40.598469 30.916809 33.550911 30.890839 28.087946 30.966339 C 27.41358 30.975647 27.396034 0.220764 28.064144 0.217041 C 30.695784 0.202423 44.719997 0.204193 44.719997 0.204193 Z M 27.686176 54.833191 L 60.341904 54.807922 L 60.426449 164.029327 C 60.439445 180.818451 52.336636 200.196716 26.322756 200.216888 C 10.825115 200.228882 4.918265 196.359009 0.304306 194.333191 L 10.43114 167.942413 C 10.43114 167.942413 14.676675 170.706573 18.735577 170.70343 C 24.270454 170.699158 27.77272 166.637512 27.765863 157.781769 Z"/>
</svg>
